<svg xmlns="http://www.w3.org/2000/svg" viewBox="0 0 77.4 80"><defs><radialGradient id="firefox-b" cx="-7907" cy="-8515" r="80.8" gradientTransform="translate(7974 8524)" gradientUnits="userSpaceOnUse"><stop stop-color="#ffbd4f" offset=".1"/><stop stop-color="#ffac31" offset=".2"/><stop stop-color="#ff9d17" offset=".2"/><stop stop-color="#ff980e" offset=".3"/><stop stop-color="#ff563b" offset=".4"/><stop stop-color="#ff3750" offset=".5"/><stop stop-color="#f5156c" offset=".7"/><stop stop-color="#eb0878" offset=".8"/><stop stop-color="#e50080" offset=".9"/></radialGradient><radialGradient id="firefox-c" cx="-7937" cy="-8482" r="80.8" gradientTransform="translate(7974 8524)" gradientUnits="userSpaceOnUse"><stop stop-color="#960e18" offset=".3"/><stop stop-color="#b11927" stop-opacity=".7" offset=".4"/><stop stop-color="#db293d" stop-opacity=".3" offset=".4"/><stop stop-color="#f5334b" stop-opacity=".1" offset=".5"/><stop stop-color="#ff3750" stop-opacity="0" offset=".5"/></radialGradient><radialGradient id="firefox-d" cx="-7927" cy="-8533" r="58.5" gradientTransform="translate(7974 8524)" gradientUnits="userSpaceOnUse"><stop stop-color="#fff44f" offset=".1"/><stop stop-color="#ffdc3e" offset=".3"/><stop stop-color="#ff9d12" offset=".5"/><stop stop-color="#ff980e" offset=".5"/></radialGradient><radialGradient id="firefox-e" cx="-7946" cy="-8461" r="38.5" gradientTransform="translate(7974 8524)" gradientUnits="userSpaceOnUse"><stop stop-color="#3a8ee6" offset=".4"/><stop stop-color="#5c79f0" offset=".5"/><stop stop-color="#9059ff" offset=".7"/><stop stop-color="#c139e6" offset="1"/></radialGradient><radialGradient id="firefox-f" cx="-7936" cy="-8492" r="20.4" gradientTransform="matrix(.972 -.235 .275 1.138 10090 7834)" gradientUnits="userSpaceOnUse"><stop stop-color="#9059ff" stop-opacity="0" offset=".2"/><stop stop-color="#8c4ff3" stop-opacity=".1" offset=".3"/><stop stop-color="#7716a8" stop-opacity=".5" offset=".7"/><stop stop-color="#6e008b" stop-opacity=".6" offset="1"/></radialGradient><radialGradient id="firefox-g" cx="-7938" cy="-8518" r="27.7" gradientTransform="translate(7974 8524)" gradientUnits="userSpaceOnUse"><stop stop-color="#ffe226" offset="0"/><stop stop-color="#ffdb27" offset=".1"/><stop stop-color="#ffc82a" offset=".3"/><stop stop-color="#ffa930" offset=".5"/><stop stop-color="#ff7e37" offset=".7"/><stop stop-color="#ff7139" offset=".8"/></radialGradient><radialGradient id="firefox-h" cx="-7916" cy="-8536" r="118.1" gradientTransform="translate(7974 8524)" gradientUnits="userSpaceOnUse"><stop stop-color="#fff44f" offset=".1"/><stop stop-color="#ff980e" offset=".5"/><stop stop-color="#ff5634" offset=".6"/><stop stop-color="#ff3647" offset=".7"/><stop stop-color="#e31587" offset=".9"/></radialGradient><radialGradient id="firefox-i" cx="-7927" cy="-8523" r="86.5" gradientTransform="matrix(.105 .995 -.653 .069 -4685 8470)" gradientUnits="userSpaceOnUse"><stop stop-color="#fff44f" offset="0"/><stop stop-color="#ffe847" offset=".1"/><stop stop-color="#ffc830" offset=".2"/><stop stop-color="#ff980e" offset=".3"/><stop stop-color="#ff8b16" offset=".4"/><stop stop-color="#ff672a" offset=".5"/><stop stop-color="#ff3647" offset=".6"/><stop stop-color="#e31587" offset=".7"/></radialGradient><radialGradient id="firefox-j" cx="-7938" cy="-8508" r="73.7" gradientTransform="translate(7974 8524)" gradientUnits="userSpaceOnUse"><stop stop-color="#fff44f" offset=".1"/><stop stop-color="#ff980e" offset=".5"/><stop stop-color="#ff5634" offset=".6"/><stop stop-color="#ff3647" offset=".7"/><stop stop-color="#e31587" offset=".9"/></radialGradient><radialGradient id="firefox-k" cx="-7919" cy="-8504" r="80.7" gradientTransform="translate(7974 8524)" gradientUnits="userSpaceOnUse"><stop stop-color="#fff44f" offset=".1"/><stop stop-color="#ffe141" offset=".2"/><stop stop-color="#ffaf1e" offset=".5"/><stop stop-color="#ff980e" offset=".6"/></radialGradient><linearGradient id="firefox-a" x1="70.8" x2="6.4" y1="12.4" y2="74.5" gradientTransform="translate(-1.3)" gradientUnits="userSpaceOnUse"><stop stop-color="#fff44f" offset="0"/><stop stop-color="#ffe847" offset=".1"/><stop stop-color="#ffc830" offset=".2"/><stop stop-color="#ff980e" offset=".4"/><stop stop-color="#ff8b16" offset=".4"/><stop stop-color="#ff672a" offset=".5"/><stop stop-color="#ff3647" offset=".5"/><stop stop-color="#e31587" offset=".7"/></linearGradient><linearGradient id="firefox-l" x1="70" x2="15.3" y1="12.1" y2="66.8" gradientTransform="translate(-1.3)" gradientUnits="userSpaceOnUse"><stop stop-color="#fff44f" stop-opacity=".8" offset=".2"/><stop stop-color="#fff44f" stop-opacity=".6" offset=".3"/><stop stop-color="#fff44f" stop-opacity=".2" offset=".5"/><stop stop-color="#fff44f" stop-opacity="0" offset=".6"/></linearGradient></defs><path d="M74.6 26.8c-1.7-4-5-8.4-7.8-9.8a40.3 40.3 0 0 1 4 11.8C66.4 18 59 13.5 52.9 4a47.1 47.1 0 0 1-1.3-2.3A7 7 0 0 1 51 .1a.1.1 0 0 0-.1 0h-.1c-.1 0 0 0 0 0a28.3 28.3 0 0 0-13.4 21.4 19.4 19.4 0 0 0-10.6 4.1 11.6 11.6 0 0 0-1-.7 18 18 0 0 1-.1-9.5 28.7 28.7 0 0 0-9.4 7.2c-1.5-2-1.4-8.3-1.3-9.7a7 7 0 0 0-1.3.7 28.2 28.2 0 0 0-3.8 3.2 33.8 33.8 0 0 0-3.6 4.4A32.7 32.7 0 0 0 1 32.9v.3l-.5 2.4v.1A37 37 0 0 0 0 41v.2a38.8 38.8 0 0 0 77 6.6l.1-1.5a39.9 39.9 0 0 0-2.5-19.5zM30 57.2l.5.2q-.3 0-.5-.2zm40.8-28.4z" fill="url(#firefox-a)" transform="matrix(.982 0 0 .982 .7 .7)"/><path d="M74.6 26.8c-1.7-4-5-8.4-7.8-9.8a40.3 40.3 0 0 1 4 11.8A35.1 35.1 0 0 1 69.6 55a33.3 33.3 0 0 1-32 18.8A39 39 0 0 1 .4 42.2c-.6-2.8 0-4.2.2-6.5A28.9 28.9 0 0 0 0 41v.2a38.8 38.8 0 0 0 77 6.6l.1-1.5a39.9 39.9 0 0 0-2.5-19.5z" fill="url(#firefox-b)" transform="matrix(.982 0 0 .982 .7 .7)"/><path d="M74.6 26.8c-1.7-4-5-8.4-7.8-9.8a40.3 40.3 0 0 1 4 11.8A35.1 35.1 0 0 1 69.6 55a33.3 33.3 0 0 1-32 18.8A39 39 0 0 1 .4 42.2c-.6-2.8 0-4.2.2-6.5A28.9 28.9 0 0 0 0 41v.2a38.8 38.8 0 0 0 77 6.6l.1-1.5a39.9 39.9 0 0 0-2.5-19.5z" fill="url(#firefox-c)" transform="matrix(.982 0 0 .982 .7 .7)"/><path d="m55.8 31.4.2.2a21.1 21.1 0 0 0-3.6-4.7C40.4 14.9 49.3.7 50.8 0a28.3 28.3 0 0 0-13.4 21.5h1.4a19.6 19.6 0 0 1 17 9.9z" fill="url(#firefox-d)" transform="matrix(.982 0 0 .982 .7 .7)"/><path d="M38.8 33.8c0 1-3.4 4.3-4.6 4.3-11 0-12.9 6.6-12.9 6.6a16.4 16.4 0 0 0 9.8 13l1.2.5a17.2 17.2 0 0 0 5 1c19.3.9 23-23.1 9.1-30a13.4 13.4 0 0 1 9.4 2.2 19.6 19.6 0 0 0-17-10l-1.4.1a19.4 19.4 0 0 0-10.6 4.1l2.6 2.6c2.7 2.6 9.4 5.3 9.4 5.6z" fill="url(#firefox-e)" transform="matrix(.982 0 0 .982 .7 .7)"/><path d="M38.8 33.8c0 1-3.4 4.3-4.6 4.3-11 0-12.9 6.6-12.9 6.6a16.4 16.4 0 0 0 9.8 13l1.2.5a17.2 17.2 0 0 0 5 1c19.3.9 23-23.1 9.1-30a13.4 13.4 0 0 1 9.4 2.2 19.6 19.6 0 0 0-17-10l-1.4.1a19.4 19.4 0 0 0-10.6 4.1l2.6 2.6c2.7 2.6 9.4 5.3 9.4 5.6z" fill="url(#firefox-f)" transform="matrix(.982 0 0 .982 .7 .7)"/><path d="m25 24.4.8.5a18 18 0 0 1-.1-9.5 28.7 28.7 0 0 0-9.4 7.2c.2 0 5.8 0 8.7 1.8z" fill="url(#firefox-g)" transform="matrix(.982 0 0 .982 .7 .7)"/><path d="M.4 42.2a39 39 0 0 0 37.1 31.6c16.9.5 27.6-9.3 32-18.8a35.1 35.1 0 0 0 1.4-26v-.1c1.4 9-3.2 17.7-10.4 23.6-13.9 11.4-27.2 6.9-29.9 5q-.3 0-.5-.2C21.9 53.4 18.6 46 19.3 39.7a10 10 0 0 1-9.2-5.8 14.6 14.6 0 0 1 14.3-.6 19.3 19.3 0 0 0 14.5.6c0-.3-6.7-3-9.4-5.6l-2.6-2.5a11.6 11.6 0 0 0-1-.8l-.8-.5a19 19 0 0 0-8.7-1.8c-1.5-2-1.4-8.3-1.3-9.7a7 7 0 0 0-1.3.7A28.2 28.2 0 0 0 9.9 17a33.8 33.8 0 0 0-3.6 4.3A32.7 32.7 0 0 0 1 32.9C1 33-.3 39 .3 42.2z" fill="url(#firefox-h)" transform="matrix(.982 0 0 .982 .7 .7)"/><path d="M52.4 26.9a21.1 21.1 0 0 1 3.6 4.7l.6.4c8.8 8.1 4.2 19.6 3.8 20.4a26.2 26.2 0 0 0 10.4-23.6C66.4 18 59 13.5 52.8 4a47.1 47.1 0 0 1-1.2-2.3A7 7 0 0 1 51 .1a.1.1 0 0 0-.1-.1h-.1c-1.5.7-10.4 14.8 1.6 26.8z" fill="url(#firefox-i)" transform="matrix(.982 0 0 .982 .7 .7)"/><path d="M56.6 32a8 8 0 0 0-.6-.4l-.2-.2a13.4 13.4 0 0 0-9.4-2.3c14 7 10.2 31-9 30a17.2 17.2 0 0 1-5.1-.9l-1.2-.5-.6-.3c2.7 1.9 16 6.4 30-5 .3-.8 4.9-12.3-3.9-20.4z" fill="url(#firefox-j)" transform="matrix(.982 0 0 .982 .7 .7)"/><path d="M21.4 44.7s1.7-6.6 12.8-6.6c1.2 0 4.6-3.4 4.6-4.3a19.3 19.3 0 0 1-14.5-.6 14.6 14.6 0 0 0-14.3.6 10 10 0 0 0 9.2 5.8c-.7 6.3 2.6 13.7 10.7 17.6l.6.2c-4.8-2.4-8.7-7-9.1-12.7z" fill="url(#firefox-k)" transform="matrix(.982 0 0 .982 .7 .7)"/><path d="M74.6 26.8c-1.7-4-5-8.4-7.8-9.8a40.3 40.3 0 0 1 4 11.8C66.4 18 59 13.5 52.9 4a47.1 47.1 0 0 1-1.3-2.3A7 7 0 0 1 51 .1a.1.1 0 0 0-.1 0h-.1c-.1 0 0 0 0 0a28.3 28.3 0 0 0-13.4 21.4h1.4a19.6 19.6 0 0 1 17 9.9 13.4 13.4 0 0 0-9.4-2.3c14 7 10.2 31-9 30a17.2 17.2 0 0 1-5.1-.9l-1.2-.5-.6-.3q-.3 0-.5-.2l.5.2a16 16 0 0 1-9.1-12.6s1.7-6.7 12.8-6.7c1.2 0 4.6-3.3 4.6-4.3 0-.3-6.7-3-9.4-5.6l-2.6-2.5a11.6 11.6 0 0 0-1-.8 18 18 0 0 1-.1-9.5 28.7 28.7 0 0 0-9.4 7.2c-1.5-2-1.4-8.3-1.3-9.7a7 7 0 0 0-1.3.7A28.2 28.2 0 0 0 9.9 17a33.8 33.8 0 0 0-3.6 4.3A32.7 32.7 0 0 0 1 32.9v.3l-.5 2.4A45 45 0 0 0 0 41v.2a38.8 38.8 0 0 0 77 6.6l.1-1.5a39.9 39.9 0 0 0-2.5-19.5zm-3.8 2z" fill="url(#firefox-l)" transform="matrix(.982 0 0 .982 .7 .7)"/></svg>